<svg width="241" height="33" viewBox="0 0 241 33" fill="none" xmlns="http://www.w3.org/2000/svg">
<rect width="241" height="18" fill="url(#paint0_linear_187_224)"/>
<path d="M105.17 13L104.52 11.11H101.83L101.19 13H99.8296L102.45 5.83H103.91L106.53 13H105.17ZM103.57 8.17C103.543 8.07667 103.503 7.95 103.45 7.79C103.396 7.63 103.343 7.46667 103.29 7.3C103.243 7.12667 103.206 6.98333 103.18 6.87C103.146 7.00333 103.103 7.15667 103.05 7.33C103.003 7.50333 102.956 7.66667 102.91 7.82C102.87 7.97333 102.836 8.09 102.81 8.17L102.18 10.01H104.19L103.57 8.17ZM114.896 9.36C114.896 10.16 114.743 10.83 114.436 11.37C114.136 11.91 113.7 12.3167 113.126 12.59C112.56 12.8633 111.873 13 111.066 13H109.056V5.86H111.276C112.016 5.86 112.656 5.99333 113.196 6.26C113.736 6.52667 114.153 6.92 114.446 7.44C114.746 7.95333 114.896 8.59333 114.896 9.36ZM113.556 9.4C113.556 8.83333 113.47 8.36667 113.296 8C113.123 7.63333 112.866 7.36333 112.526 7.19C112.186 7.01 111.77 6.92 111.276 6.92H110.336V11.93H111.106C111.933 11.93 112.546 11.72 112.946 11.3C113.353 10.8733 113.556 10.24 113.556 9.4ZM121.077 13L119.117 7.15H119.077C119.084 7.28333 119.094 7.47333 119.107 7.72C119.121 7.96 119.131 8.22333 119.137 8.51C119.151 8.79 119.157 9.05333 119.157 9.3V13H118.007V5.86H119.787L121.667 11.47H121.707L123.667 5.86H125.447V13H124.227V9.24C124.227 9.01333 124.231 8.76667 124.237 8.5C124.251 8.22667 124.261 7.97 124.267 7.73C124.281 7.48333 124.291 7.29333 124.297 7.16H124.257L122.217 13H121.077ZM131.302 13H128.302V12.27L129.162 11.95V6.92L128.302 6.59V5.86H131.302V6.59L130.442 6.92V11.95L131.302 12.27V13ZM140.241 13H138.651L135.271 7.4H135.231C135.237 7.54667 135.244 7.70333 135.251 7.87C135.264 8.03 135.274 8.19667 135.281 8.37C135.287 8.53667 135.294 8.70667 135.301 8.88C135.307 9.05333 135.314 9.22667 135.321 9.4V13H134.171V5.86H135.751L139.121 11.42H139.151C139.144 11.2867 139.137 11.1433 139.131 10.99C139.124 10.83 139.117 10.6667 139.111 10.5C139.111 10.3333 139.107 10.1633 139.101 9.99C139.094 9.81667 139.087 9.65 139.081 9.49V5.86H140.241V13Z" fill="#111111"/>
<defs>
<linearGradient id="paint0_linear_187_224" x1="229" y1="8.99995" x2="-27.5" y2="8.99992" gradientUnits="userSpaceOnUse">
<stop stop-color="#FEFEFE"/>
<stop offset="1" stop-color="#FEFEFE" stop-opacity="0"/>
</linearGradient>
</defs>
</svg>
